<?xml version="1.0" encoding="utf-8"?>
<!-- Generator: Adobe Illustrator 18.1.1, SVG Export Plug-In . SVG Version: 6.00 Build 0)  -->
<svg version="1.1" id="Layer_1" xmlns="http://www.w3.org/2000/svg" xmlns:xlink="http://www.w3.org/1999/xlink" x="0px" y="0px"
	 viewBox="0 200 800 400" enable-background="new 0 200 800 400" xml:space="preserve">
<g id="Layer_1_1_">
	<path fill="#918080" d="M319.5,539.6c-7.2,4.1-11.4,6.1-12.8,6.1c-2.5,0-3.7-2.6-3.7-7.7c0-17.1,4.9-49.6,14.8-97.5
		c1.5-7,2.8-13.7,4-20.1l-48.7,8.4c-0.5,2.5-1,5-1.5,7.6l-2.7,14.5c-9.4,48.4-14.5,76.9-15.1,85.5v15.4
		c2.2,13.7,10.6,20.6,25.1,20.6s31.2-7.8,50.3-23.5l-6.4-11.2L319.5,539.6z"/>
	<path fill="#39404C" d="M35.7,467.5c-7.7,0-14.1-2.5-19.2-7.4S9,448.3,9,439.4s5.6-37.3,16.7-85.1c11.1-47.9,16.7-82.4,16.7-103.6
		l-2-14.1c17.5-5.8,33.9-8.7,49.1-8.7c2.2,3,3.4,8.2,3.4,15.7c0,17.1-5.7,50.3-17,99.4s-17,77.7-17,85.8c0,8,1,12,3,12l23.6-8
		l6.1,11.2c-7.6,5.8-16.9,11.1-27.8,16.1C52.8,465,43.5,467.5,35.7,467.5z"/>
	<path fill="#39404C" d="M125.3,467.5c-7.7,0-14.1-2.5-19.2-7.4c-5-4.9-7.6-11.8-7.6-20.7c0-8.9,5.6-37.3,16.7-85.1
		c11.1-47.9,16.7-82.4,16.7-103.6l-2-14.1c17.5-5.8,33.9-8.7,49.1-8.7c2.2,3,3.4,8.2,3.4,15.7c0,17.1-5.7,50.3-17,99.4
		s-17,77.7-17,85.8c0,8,1,12,3,12l23.6-8l6.1,11.2c-7.6,5.8-16.9,11.1-27.8,16.1C142.3,465,133,467.5,125.3,467.5z"/>
	<path fill="#39404C" d="M348.2,444.1c-19.1,15.6-35.8,23.5-50.3,23.5s-22.8-6.9-25.1-20.6c-6.7,6.4-14.3,11.5-22.6,15.1
		c-8.3,3.6-15.6,5.5-21.9,5.5c-10.8,0-20-4.5-27.6-13.5s-11.4-22.9-11.4-41.8c0-28.3,6.3-50.5,18.8-66.7
		c12.6-16.2,26.8-24.3,42.6-24.3s29.1,3.4,39.9,10.3c7-34.7,10.4-62,10.4-81.9l-1.7-13.5c16.8-5.6,33.3-8.4,49.5-8.4
		c1.8,3.6,2.7,7.8,2.7,12.5c0,15.6-4.9,47.4-14.8,95.2c-9.9,47.9-14.8,80.4-14.8,97.5c0,5.1,1.2,7.7,3.7,7.7c1.3,0,5.6-2,12.8-6.1
		l3.4-1.9L348.2,444.1z M267.1,340.3c-7.9,0-14.6,7.4-20.4,22.2c-5.7,14.8-8.6,29.4-8.6,43.8c0,14.5,1.1,23.7,3.2,27.8
		c2.1,4.1,5.3,6.1,9.6,6.1c7.4,0,14.7-2.9,21.9-8.7c0.7-8.6,5.7-37,15.1-85.5C280.4,342.2,273.4,340.3,267.1,340.3z"/>
	<path fill="#39404C" d="M614,433.8l-5.1,1.9c-10.9,4.1-17.3,6.1-19.2,6.1c-2.8,0-4.2-3.4-4.2-10.1s3.4-20,10.3-39.7
		c6.9-19.7,10.3-33.8,10.3-42.4s-3.6-15.3-10.8-20.1s-16.1-7.2-26.9-7.2c-10.8,0-22.9,2.5-36.5,7.5s-24.6,9.9-33,14.6V360
		c11.5-4.7,21.8-7.1,30.9-7.1c5.3,0,8,3.1,8,9.2c0,6.1-3.4,19.2-10.1,39.2c-6.7,20-10.1,33.4-10.1,40c0,18.2,11.7,27.3,35.1,27.3
		c10.6,0,22.8-2.5,36.7-7.5s24.9-10.3,33-15.9L614,433.8z"/>
	<path fill="#39404C" d="M504.8,342.2c-3-13.9-11.8-20.8-26.3-20.8c-11.9,0-27.9,7.2-48.1,21.5c0-9.2-1.6-15.8-4.7-19.9
		c-26.7,0-46.1,1.6-58.2,4.8l-0.3,4.2l3,3.9c6.3,7.9,9.4,15.4,9.4,22.5c0,3.9-3.2,20-9.6,48.5s-9.6,47.8-9.6,57.8h6.4
		c20.4,0,34.6-1.5,42.4-4.5c0-14.3,4-38.4,12.1-72.3c4-16.9,6.3-26.3,6.7-28.3c8.1-5.1,15.5-7.7,22.2-7.7c4.3,0,6.4,2.9,6.4,8.7
		s-2.6,19.5-7.9,41.1s-7.9,36.9-7.9,45.9s0.2,14.7,0.7,17c24,0,39.3-1.4,45.8-4.2c0-13.7,2.9-33,8.6-57.8
		c5.7-24.8,8.8-39.4,9.3-43.7v-15.4C505,343.1,504.9,342.6,504.8,342.2z"/>
</g>
<g id="Layer_2">
	<rect x="327.7" y="438.6" fill="none" width="570.4" height="202.8"/>
	<text transform="matrix(1 0 0 1 327.6978 560.8948)" fill="#918080" font-family="'Kefa-Bold'" font-size="175.7449">ueens</text>
</g>
<g id="Layer_3">
	<g>
		<rect x="529.6" y="384.6" fill="none" width="67.7" height="35.5"/>
		<text transform="matrix(1 0 0 1 529.6284 416.3587)" fill="#FFFFFF" font-family="'Avenir-HeavyOblique'" font-size="42">NY</text>
	</g>
</g>
</svg>
